<svg width="32" height="32" viewBox="0 0 32 32" fill="none" xmlns="http://www.w3.org/2000/svg">
  <circle cx="16" cy="16" r="16" fill="#2775CA"/>
  <path d="M20.5 18.5C20.5 21.5 18.5 22.5 16 22.5C13.5 22.5 11.5 21.5 11.5 18.5C11.5 15.5 13.5 14.5 16 14.5C18.5 14.5 20.5 15.5 20.5 18.5Z" fill="white"/>
  <path d="M16 9.5C18 9.5 19.5 10.5 19.5 13H22C22 9 19.5 7 16 7C12.5 7 10 9 10 13H12.5C12.5 10.5 14 9.5 16 9.5Z" fill="white"/>
  <circle cx="13" cy="12" r="1.5" fill="white"/>
  <circle cx="19" cy="12" r="1.5" fill="white"/>
</svg>

